PathFileType	4	(X/Y/Z)	C:/Users/beibeiliu/ov580/test_trc/User1\sequence.24_training_dense_left.trc
DataRate	CameraRate	NumFrames	NumMarkers	Units	OrigDataRate	OrigDataStartFrame	OrigNumFrames
120	120	10	19	mm	120	51	76
Frame#	Time	ThumbCMC			ThumbMCP			ThumbIP			ThumbTip			IndexMCP			IndexPIP			IndexTip			MiddleMCP			MiddlePIP			MiddleTip			RingMCP			RingPIP			RingTip			PinkyMCP			PinkyPIP			PinkyTip			BackHand1			BackHand2			BackHand3	
		X0	Y0	Z0	X1	Y1	Z1	X2	Y2	Z2	X3	Y3	Z3	X4	Y4	Z4	X5	Y5	Z5	X6	Y6	Z6	X7	Y7	Z7	X8	Y8	Z8	X9	Y9	Z9	X10	Y10	Z10	X11	Y11	Z11	X12	Y12	Z12	X13	Y13	Z13	X14	Y14	Z14	X15	Y15	Z15	X16	Y16	Z16	X17	Y17	Z17	X18	Y18	Z18	
50	0.416667	-172.626	61.1661	106.262	-146.817	70.6275	74.9748	-128.074	53.6039	58.1713	-110.078	26.4908	57.3812	-162.088	41.1512	21.9003	-149.202	32.0308	-3.24008	-139.081	29.2575	-23.4646	-151.678	13.8328	16.4578	-138.949	12.0047	-8.67191	-125.461	6.70292	-32.2928	-144.326	-2.86304	27.4489	-131.416	-6.53032	0.659043	-120.94	-6.70373	-23.0586	-134.822	-16.594	47.5718	-128.559	-20.5688	31.0219	-128.256	-19.4716	7.4665	-171.392	-5.73638	79.9976	-184.18	-7.79993	107.477	-190.472	24.0491	86.9977	
51	0.425	-198.203	58.6644	95.3372	-176.815	73.6174	61.3356	-155.035	56.0932	46.3354	-131.231	32.4102	48.0127	-185.885	26.9444	12.2198	-174.834	22.4571	-11.2655	-161.482	15.2058	-34.3137	-170.929	5.73214	10.9497	-162.068	5.55793	-12.8678	-144.807	-3.26463	-42.9681	-158.309	-5.44582	21.3078	-147.874	-8.13516	-4.26258	-135.851	-12.6274	-23.7605	-143.233	-17.0961	46.8614	-136.865	-18.0504	23.9594	-136.344	-19.2155	1.70862	-180.797	-7.89296	75.7611	-189.251	-10.7823	107.922	-208.32	16.89	81.5162	
52	0.433333	-212.898	49.5851	87.8244	-196.657	65.1691	56.6331	-175.746	46.7372	30.4045	-155.111	25.0445	36.9925	-212.101	16.1879	10.2259	-204.38	10.143	-15.2311	-191.074	4.04901	-40.5118	-198.65	-7.27196	3.0827	-194.314	-7.45144	-20.1698	-182.683	-11.2911	-50.4627	-183.06	-18.78	18.2947	-178.864	-19.7749	-10.7501	-168.788	-24.1182	-35.0581	-166.99	-25.0627	37.4434	-163.018	-26.7666	14.4105	-163.561	-33.1504	-10.1217	-199.718	-13.5756	70.729	-206.726	-16.4209	107.192	-226.101	11.8561	77.7263	
53	0.441667	-209.55	58.2341	91.8127	-194.125	66.3768	53.1811	-181.504	47.7779	28.5142	-168.908	21.1697	32.3756	-227.731	29.6356	12.1574	-224.624	23.0292	-16.6085	-216.243	17.3725	-39.7492	-224.605	7.21741	1.89943	-221.185	1.38562	-25.6407	-212.838	-4.8933	-53.7418	-213.24	-8.92301	12.1063	-209.776	-15.1362	-13.4312	-205.43	-16.2134	-37.8166	-197.77	-22.4639	32.2091	-196.31	-23.6676	8.69869	-199.216	-25.1994	-15.023	-220.244	-10.6843	72.9553	-223.995	-8.65747	103.1	-235.583	25.6779	79.2285	
54	0.45	-187.323	62.8645	97.1659	-169.159	67.6456	65.9759	-168	50.8854	36.7067	-169.679	21.3697	33.8794	-215.828	58.817	18.766	-217.359	56.0276	-12.3496	-213.31	50.118	-34.2898	-225.665	35.1822	8.66739	-223.955	37.5414	-22.1134	-221.538	33.8869	-51.9688	-224.106	14.1303	15.0044	-225.238	13.7121	-15.548	-220.749	16.2236	-38.7358	-217.596	-3.76278	27.9648	-217.877	-2.13506	6.92195	-217.33	4.0303	-17.5076	-229.76	12.4049	71.5455	-230.005	8.14574	105.122	-222.447	47.9072	87.5891	
55	0.458333	-160.027	47.3695	108.614	-139.635	50.194	75.1424	-148.812	39.5678	48.6702	-164.821	16.2078	33.6985	-182.071	74.4632	33.1183	-183.439	77.2631	3.35213	-184.831	75.9518	-23.1254	-201.444	66.3226	19.5517	-200.035	71.9201	-9.64888	-202.339	69.3838	-37.1092	-213.068	48.4246	24.5906	-215.142	53.1009	-8.87709	-211.482	54.8913	-30.9712	-223.121	24.8621	33.3262	-220.522	31.1673	14.2415	-218.933	38.0618	-15.2132	-218.55	39.322	79.2584	-222.995	33.9196	109.483	-197.766	59.7461	101.477	
56	0.466667	-137.45	28.6494	116.258	-117.527	23.7934	84.6297	-128.251	20.4539	54.4147	-152.045	7.45933	39.9115	-144.219	67.7136	40.66	-143.718	71.7962	14.7822	-146.19	74.0865	-9.89347	-168.02	69.9506	27.8398	-166.751	73.6877	-0.240549	-169.365	76.7324	-29.7413	-187.919	59.2295	34.3021	-187.455	66.56	2.50067	-182.082	70.506	-21.9315	-205.998	43.1403	46.6469	-204.338	49.9912	25.7556	-201.826	59.5725	-1.45105	-198.656	52.6826	85.2418	-205.031	45.6657	121.783	-163.808	55.1733	107.571	
57	0.475	-124.442	14.2771	128.132	-105.046	5.18577	97.8349	-119.338	3.66509	67.5566	-140.993	-3.40048	54.5185	-119.875	46.8373	42.4537	-122.432	48.8946	18.0247	-123.318	50.7268	-7.58339	-144.604	55.298	32.7191	-142.727	54.7207	9.48205	-143.424	57.3127	-24.7376	-163.836	52.635	35.338	-161.183	56.0506	10.5696	-159.73	56.0365	-11.5642	-188.255	44.7827	53.1668	-187.395	50.5607	29.6375	-182.284	59.1282	8.91021	-175.622	50.8192	95.2873	-176.864	50.3816	128.744	-142.4	48.1655	116.397	
58	0.483333	-108.351	15.753	138.935	-92.2487	3.64477	108.323	-101.439	-2.28984	80.6976	-127.965	-10.1188	65.0563	-106.423	36.9155	51.289	-106.901	34.5104	25.9405	-108.479	33.3128	-4.22264	-130.447	42.4063	39.516	-125.942	37.6579	9.03641	-124.933	36.4837	-19.719	-150.945	41.4256	42.9167	-147.293	39.6483	14.2268	-143.476	37.0132	-6.95461	-174.48	35.6329	56.5025	-169.943	36.6483	36.2911	-164.35	41.5565	10.0216	-157.624	48.1349	97.5616	-167.429	50.3518	132.89	-130.213	48.4215	119.404	
59	0.491667	-107.049	35.4559	143.58	-86.0167	25.2463	113.952	-92.5036	11.6998	87.5845	-114.592	-6.66588	77.8149	-101.079	39.2002	49.059	-95.7905	32.3563	25.2957	-98.9364	23.5896	4.4358	-125.872	31.3243	36.4606	-116.84	24.8421	15.5238	-114.865	14.8373	-13.5712	-144	23.3505	39.9154	-134.475	18.4317	14.8424	-129.869	12.0476	-10.0735	-164.947	11.0882	59.12	-158.669	8.48648	33.026	-150.778	10.2927	14.1939	-166.31	37.0682	97.5829	-175.539	44.1066	126.808	-134.203	55.2955	117.471	
